<svg width="364.648" height="98.096" viewBox="0 0 364.648 98.096" xmlns="http://www.w3.org/2000/svg"><g id="svgGroup" stroke-linecap="round" fill-rule="evenodd" font-size="9pt" stroke="#080808" stroke-width="0.25mm" fill="#000000" style="stroke:#080808;stroke-width:0.25mm;fill:#000000"><path d="M 159.131 31.397 L 165.625 8.203 A 59.437 59.437 0 0 1 166.037 6.641 Q 166.507 4.958 166.96 3.791 A 15.203 15.203 0 0 1 167.236 3.125 Q 168.018 1.367 169.946 0.732 A 9.292 9.292 0 0 1 171.207 0.426 Q 173.042 0.098 176.025 0.098 L 177.734 0.098 Q 177.687 0.713 177.158 2.821 A 94.173 94.173 0 0 1 177.124 2.954 Q 176.641 4.863 176.177 6.394 A 52.139 52.139 0 0 1 176.025 6.885 Q 175.427 8.679 174.529 11.619 A 473.465 473.465 0 0 0 173.95 13.525 Q 172.666 17.788 171.118 23.085 A 1506.855 1506.855 0 0 0 171.094 23.169 A 671.755 671.755 0 0 0 167.993 34.131 A 718.837 718.837 0 0 0 166.516 39.606 A 609.755 609.755 0 0 0 165.161 44.8 Q 164.272 48.274 163.624 51.091 A 158.686 158.686 0 0 0 163.086 53.516 Q 162.305 57.178 162.305 58.594 Q 162.305 60.449 162.671 61.06 A 1.191 1.191 0 0 0 163.529 61.647 A 1.723 1.723 0 0 0 163.818 61.67 Q 165.039 61.67 168.555 58.154 A 346.991 346.991 0 0 0 171.349 55.325 A 480.248 480.248 0 0 0 172.429 54.216 A 126.746 126.746 0 0 1 172.905 52.54 Q 173.558 50.288 174.355 47.802 A 220.841 220.841 0 0 1 174.902 46.118 Q 176.904 40.039 179.297 33.203 Q 179.395 32.568 181.079 32.324 Q 182.764 32.08 184.644 32.031 Q 186.186 31.991 186.923 31.984 A 29.508 29.508 0 0 1 187.207 31.982 L 188.916 31.982 A 0.429 0.429 0 0 1 188.903 32.056 Q 188.815 32.446 188.11 34.668 A 1460.709 1460.709 0 0 0 187.683 36.017 Q 187.027 38.09 186.166 40.832 A 4247.908 4247.908 0 0 0 186.108 41.016 A 523.173 523.173 0 0 0 183.716 48.853 A 200.317 200.317 0 0 0 182.68 52.457 Q 182.209 54.16 181.823 55.693 A 120.23 120.23 0 0 0 181.714 56.128 A 55.768 55.768 0 0 0 181.371 57.588 Q 180.929 59.598 180.909 60.6 A 4.65 4.65 0 0 0 180.908 60.693 A 6.614 6.614 0 0 0 180.975 61.673 Q 181.161 62.909 181.86 63.501 A 3.39 3.39 0 0 0 183.844 64.294 A 4.392 4.392 0 0 0 184.18 64.307 A 8.332 8.332 0 0 0 186.059 64.077 Q 186.928 63.876 187.875 63.498 A 16.961 16.961 0 0 0 188.818 63.086 A 30.784 30.784 0 0 0 191.843 61.455 A 25.683 25.683 0 0 0 193.457 60.376 A 25.153 25.153 0 0 0 194.275 59.758 Q 195.431 58.844 195.808 58.263 A 1.634 1.634 0 0 0 195.898 58.105 L 201.221 37.793 A 21.488 21.488 0 0 1 201.656 36.291 Q 202.287 34.399 203.076 33.521 A 4.534 4.534 0 0 1 204.082 32.67 A 3.657 3.657 0 0 1 205.566 32.153 A 22.864 22.864 0 0 1 207.056 32.025 A 29.993 29.993 0 0 1 208.691 31.982 L 212.012 31.982 Q 211.562 33.286 210.657 36.392 A 337.131 337.131 0 0 0 210.498 36.939 A 567.921 567.921 0 0 0 209.441 40.636 Q 208.872 42.653 208.252 44.897 A 1330.457 1330.457 0 0 0 206.049 52.968 A 1215.787 1215.787 0 0 0 205.908 53.491 Q 204.812 57.565 204.065 60.314 A 1437.588 1437.588 0 0 1 204.028 60.449 Q 203.271 63.232 203.223 63.379 L 203.809 62.891 Q 206.058 61.011 207.891 59.477 A 10036.348 10036.348 0 0 0 209.473 58.154 A 217.201 217.201 0 0 0 212.924 55.206 A 191.572 191.572 0 0 0 214.014 54.248 A 136.019 136.019 0 0 0 214.964 53.397 A 31.838 31.838 0 0 1 216.235 48.438 Q 217.969 43.359 221.167 39.282 Q 224.365 35.205 228.76 32.788 A 19.733 19.733 0 0 1 238.062 30.375 A 23.204 23.204 0 0 1 238.477 30.371 Q 243.262 30.371 246.631 32.227 Q 249.937 34.048 249.999 38.785 A 13.91 13.91 0 0 1 250 38.965 A 12.099 12.099 0 0 1 247.876 45.874 A 15.965 15.965 0 0 1 242.432 50.903 A 14.055 14.055 0 0 1 235.4 52.783 A 8.154 8.154 0 0 1 233.387 52.515 Q 232.194 52.211 230.884 51.563 A 9.81 9.81 0 0 1 228.237 49.613 A 13.724 13.724 0 0 1 226.563 47.51 A 22.349 22.349 0 0 0 224.955 51.99 A 17.804 17.804 0 0 0 224.463 56.104 A 21.529 21.529 0 0 0 224.798 59.959 A 18.734 18.734 0 0 0 225.171 61.597 A 9.154 9.154 0 0 0 226.274 64.116 A 7.968 7.968 0 0 0 227.686 65.772 Q 229.343 67.25 232.152 67.372 A 11.858 11.858 0 0 0 232.666 67.383 Q 234.422 67.383 236.492 66.297 A 15.635 15.635 0 0 0 237.793 65.527 A 38.695 38.695 0 0 0 240.674 63.434 A 52.146 52.146 0 0 0 243.652 60.864 A 178.861 178.861 0 0 0 249.561 55.127 A 223.118 223.118 0 0 1 251.978 52.704 A 163.464 163.464 0 0 1 253.158 51.551 A 274.117 274.117 0 0 1 254.175 47.485 Q 254.993 44.317 255.703 41.798 A 178.823 178.823 0 0 1 255.933 40.991 A 106.909 106.909 0 0 1 256.31 39.705 Q 256.847 37.917 257.178 37.109 A 12.763 12.763 0 0 1 257.859 35.625 Q 258.666 34.147 259.692 33.423 A 6.866 6.866 0 0 1 262.242 32.329 A 8.644 8.644 0 0 1 263.232 32.178 Q 265.283 31.982 267.969 31.982 Q 267.48 33.643 266.553 36.67 A 440.932 440.932 0 0 0 265.588 39.862 A 588.537 588.537 0 0 0 264.551 43.384 A 357.657 357.657 0 0 0 262.5 50.708 Q 261.523 54.346 260.889 57.275 Q 260.386 59.597 260.281 60.998 A 9.098 9.098 0 0 0 260.254 61.67 A 4.154 4.154 0 0 0 260.279 62.101 Q 260.328 62.568 260.473 63.212 A 18.183 18.183 0 0 0 260.571 63.623 Q 260.889 64.893 261.963 64.893 Q 262.533 64.893 264.513 63.182 A 38.036 38.036 0 0 0 264.624 63.086 Q 266.051 61.844 267.743 60.244 A 158.427 158.427 0 0 0 269.336 58.716 A 211.473 211.473 0 0 0 273.126 54.939 A 186.535 186.535 0 0 0 273.568 54.486 A 301.679 301.679 0 0 1 274.854 49.268 A 205.472 205.472 0 0 1 275.928 45.233 A 162.053 162.053 0 0 1 277.002 41.528 A 127.439 127.439 0 0 1 277.524 39.848 Q 278.177 37.799 278.728 36.348 A 37.18 37.18 0 0 1 278.906 35.889 A 7.812 7.812 0 0 1 279.568 34.522 Q 280.448 33.105 281.787 32.642 A 11.424 11.424 0 0 1 283.85 32.147 Q 284.822 32.003 285.916 31.985 A 19.108 19.108 0 0 1 286.23 31.982 L 289.502 31.982 L 288.94 33.936 A 843.98 843.98 0 0 1 288.641 34.973 Q 288.165 36.621 287.524 38.818 A 473.776 473.776 0 0 1 285.767 44.702 A 2179.46 2179.46 0 0 1 285.127 46.791 Q 284.876 47.608 284.651 48.337 A 1064.866 1064.866 0 0 1 284.229 49.707 Q 285.487 47.359 287.483 44.578 A 71.27 71.27 0 0 1 288.159 43.652 A 52.053 52.053 0 0 1 293.75 37.305 A 34.462 34.462 0 0 1 298.185 33.65 A 29.807 29.807 0 0 1 300.293 32.324 A 15.825 15.825 0 0 1 303.423 30.939 A 12.058 12.058 0 0 1 307.031 30.371 A 5.696 5.696 0 0 1 309.068 30.706 Q 311.559 31.656 311.792 35.301 A 12.255 12.255 0 0 1 311.816 36.084 A 9.333 9.333 0 0 1 311.75 37.132 Q 311.625 38.236 311.259 39.734 A 36.494 36.494 0 0 1 311.133 40.234 A 79.9 79.9 0 0 1 310.364 42.987 A 104.861 104.861 0 0 1 309.424 45.972 A 380.918 380.918 0 0 1 307.349 52.075 A 167.899 167.899 0 0 0 306.613 54.224 Q 306.328 55.077 306.078 55.858 A 94.108 94.108 0 0 0 305.615 57.349 Q 304.97 59.493 304.934 60.396 A 2.573 2.573 0 0 0 304.932 60.498 A 1.95 1.95 0 0 0 304.954 60.808 Q 305.042 61.351 305.475 61.376 A 0.74 0.74 0 0 0 305.518 61.377 A 1.633 1.633 0 0 0 305.933 61.317 Q 306.346 61.207 306.886 60.899 A 8.224 8.224 0 0 0 307.227 60.693 Q 307.861 60.254 309.375 58.862 A 182.925 182.925 0 0 0 310.968 57.379 A 250.722 250.722 0 0 0 312.72 55.713 A 2104.785 2104.785 0 0 1 314.502 54.004 A 1770.685 1770.685 0 0 1 316.187 52.393 Q 317.439 51.196 318.248 50.487 A 23.573 23.573 0 0 1 318.326 50.418 A 38.658 38.658 0 0 1 323.486 41.187 A 29.909 29.909 0 0 1 332.178 33.35 A 21.26 21.26 0 0 1 343.213 30.371 A 34.5 34.5 0 0 1 345.652 30.464 Q 347.824 30.618 350.464 31.03 A 324.621 324.621 0 0 1 353.477 31.514 Q 354.668 31.712 355.752 31.902 A 181.187 181.187 0 0 1 357.813 32.275 L 350.342 63.867 A 1781.543 1781.543 0 0 0 352.539 61.806 Q 353.409 60.989 354.202 60.241 A 1010.537 1010.537 0 0 0 355.713 58.814 Q 358.008 56.641 360.132 54.517 A 86.864 86.864 0 0 0 362.323 52.24 A 115.516 115.516 0 0 0 364.648 49.658 L 364.648 55.322 A 140.876 140.876 0 0 1 357.104 63.062 Q 353.174 66.797 349.316 70.264 Q 347.803 78.857 344.189 85.107 Q 340.576 91.357 336.133 94.727 A 20.539 20.539 0 0 1 333.158 96.627 Q 331.424 97.522 329.753 97.872 A 10.315 10.315 0 0 1 327.637 98.096 Q 325.586 98.096 323.462 97.339 A 9.004 9.004 0 0 1 320.153 95.305 A 8.819 8.819 0 0 1 319.873 95.02 A 5.367 5.367 0 0 1 318.446 91.81 A 7.213 7.213 0 0 1 318.408 91.064 A 5.754 5.754 0 0 1 319.897 87.203 A 8.325 8.325 0 0 1 320.752 86.353 A 101.643 101.643 0 0 1 323.242 84.271 A 132.16 132.16 0 0 1 326.025 82.08 L 339.551 71.68 L 341.113 63.379 A 90.227 90.227 0 0 1 338.2 65.87 Q 336.877 66.95 335.683 67.823 A 37.588 37.588 0 0 1 333.423 69.36 A 31.525 31.525 0 0 1 331.08 70.695 Q 329.205 71.652 327.588 72.095 Q 325 72.803 322.412 72.803 A 5.101 5.101 0 0 1 320.322 72.382 A 4.933 4.933 0 0 1 318.799 71.314 A 8.978 8.978 0 0 1 317.119 68.897 A 11.322 11.322 0 0 1 316.577 67.554 A 14.357 14.357 0 0 1 315.82 62.988 A 32.55 32.55 0 0 1 316.226 57.995 A 528.411 528.411 0 0 1 315.381 58.814 A 220.637 220.637 0 0 1 313.11 60.974 A 288.995 288.995 0 0 1 310.596 63.306 A 130.008 130.008 0 0 1 305.51 67.737 A 119.531 119.531 0 0 1 305.347 67.871 A 63.617 63.617 0 0 1 303.145 69.606 Q 301.784 70.628 300.562 71.411 A 16.577 16.577 0 0 1 299.541 72.018 Q 298.097 72.803 297.217 72.803 A 7.521 7.521 0 0 1 296.129 72.73 Q 294.518 72.494 293.994 71.484 A 7.353 7.353 0 0 1 293.591 70.568 Q 293.416 70.076 293.35 69.622 A 3.695 3.695 0 0 1 293.311 69.092 A 29.614 29.614 0 0 1 294.276 61.682 A 33.069 33.069 0 0 1 294.409 61.182 A 71.736 71.736 0 0 1 296.973 53.516 Q 298.426 49.882 299.519 46.922 A 186.532 186.532 0 0 0 299.536 46.875 A 26.012 26.012 0 0 0 300.092 45.21 Q 300.572 43.572 300.628 42.389 A 6.426 6.426 0 0 0 300.635 42.09 A 4.435 4.435 0 0 0 300.572 41.317 Q 300.443 40.588 300.049 40.112 Q 299.463 39.404 298.73 39.404 A 5.064 5.064 0 0 0 296.477 39.962 Q 295.715 40.338 294.948 40.966 A 12.119 12.119 0 0 0 293.896 41.943 A 26.005 26.005 0 0 0 291.793 44.445 Q 290.795 45.787 289.827 47.389 A 46.042 46.042 0 0 0 289.185 48.486 Q 286.914 52.49 285.034 56.934 A 127.019 127.019 0 0 0 283.105 61.755 A 99.136 99.136 0 0 0 281.86 65.259 Q 280.566 69.141 280.029 71.387 L 270.703 71.387 A 27.502 27.502 0 0 1 270.784 69.849 Q 270.927 68.012 271.313 65.527 A 104.533 104.533 0 0 1 271.973 61.762 A 134.654 134.654 0 0 1 272.135 60.937 A 375.947 375.947 0 0 1 269.884 63.061 Q 267.751 65.055 265.938 66.673 A 152.613 152.613 0 0 1 264.355 68.066 A 27.253 27.253 0 0 1 261.265 70.409 Q 257.811 72.633 254.688 72.803 Q 252.344 72.803 251.367 70.728 A 10.034 10.034 0 0 1 250.391 66.406 Q 250.391 65.195 250.728 63.058 A 59.663 59.663 0 0 1 250.952 61.743 A 132.583 132.583 0 0 1 251.464 59.082 A 93.201 93.201 0 0 1 248.894 61.699 Q 245.583 64.925 242.277 67.399 A 55.717 55.717 0 0 1 241.333 68.091 A 27.245 27.245 0 0 1 235.153 71.462 A 21.556 21.556 0 0 1 227.441 72.9 A 14.437 14.437 0 0 1 223.191 72.304 A 11.302 11.302 0 0 1 218.018 68.994 A 13.399 13.399 0 0 1 214.845 62.492 A 19.06 19.06 0 0 1 214.514 59.568 A 81.312 81.312 0 0 1 210.718 62.891 Q 206.445 66.406 202.393 70.068 L 202.393 70.264 Q 200.879 78.857 197.266 84.399 Q 194.055 89.324 190.188 91.974 A 19.006 19.006 0 0 1 189.209 92.603 A 21.36 21.36 0 0 1 185.797 94.276 Q 183.673 95.078 181.644 95.229 A 12.579 12.579 0 0 1 180.713 95.264 Q 178.662 95.264 176.538 94.336 A 9.85 9.85 0 0 1 172.949 91.699 Q 171.484 89.99 171.484 87.598 A 6.151 6.151 0 0 1 173.258 83.256 A 8.402 8.402 0 0 1 173.682 82.837 A 24.363 24.363 0 0 1 176.135 80.866 Q 177.448 79.937 179.001 79.06 A 39.193 39.193 0 0 1 179.102 79.004 L 193.799 69.678 L 195.41 61.865 A 67.421 67.421 0 0 1 189.465 66.957 A 73.641 73.641 0 0 1 189.258 67.114 Q 185.938 69.629 182.593 71.216 A 17.801 17.801 0 0 1 179.627 72.328 A 12.991 12.991 0 0 1 176.221 72.803 A 6.445 6.445 0 0 1 174.501 72.589 A 4.188 4.188 0 0 1 171.729 70.239 A 12.715 12.715 0 0 1 170.529 65.408 A 15.013 15.013 0 0 1 170.508 64.6 A 18.634 18.634 0 0 1 170.625 62.616 A 31.594 31.594 0 0 1 170.737 61.719 A 114.523 114.523 0 0 1 166.039 66.218 A 103.189 103.189 0 0 1 165.283 66.895 Q 162.305 69.531 159.79 71.167 A 16.752 16.752 0 0 1 158.521 71.921 Q 157.233 72.605 156.254 72.758 A 3.496 3.496 0 0 1 155.713 72.803 A 4.145 4.145 0 0 1 154.471 72.628 Q 153.239 72.242 152.627 71.004 A 4.161 4.161 0 0 1 152.588 70.923 Q 151.826 69.293 151.724 67.02 A 15.988 15.988 0 0 1 151.709 66.309 A 26.22 26.22 0 0 1 152.101 61.873 A 31.506 31.506 0 0 1 152.539 59.766 A 64.396 64.396 0 0 1 148.231 64.347 Q 144.903 67.538 141.675 69.531 Q 137.518 72.098 134.729 72.651 A 7.37 7.37 0 0 1 133.301 72.803 Q 130.902 72.803 129.502 71.56 A 4.5 4.5 0 0 1 129.028 71.069 A 9.061 9.061 0 0 1 127.237 67.531 A 10.827 10.827 0 0 1 127.1 66.943 A 25.251 25.251 0 0 1 126.719 64.498 A 19.414 19.414 0 0 1 126.611 62.5 A 26.279 26.279 0 0 1 127.621 55.421 A 33.337 33.337 0 0 1 128.955 51.587 Q 131.299 45.947 135.132 41.138 A 37.812 37.812 0 0 1 140.228 35.841 A 32.06 32.06 0 0 1 143.579 33.35 A 20.411 20.411 0 0 1 147.459 31.367 A 14.914 14.914 0 0 1 152.734 30.371 Q 155.127 30.371 156.641 30.737 A 77.034 77.034 0 0 1 157.364 30.916 Q 158.33 31.159 159.032 31.367 A 25.664 25.664 0 0 1 159.131 31.397 Z M 4.297 72.803 Q 1.953 72.803 0.977 70.728 A 10.034 10.034 0 0 1 0 66.406 Q 0 65.195 0.338 63.058 A 59.663 59.663 0 0 1 0.562 61.743 A 132.583 132.583 0 0 1 1.196 58.484 A 177.709 177.709 0 0 1 1.978 54.907 Q 2.832 51.172 3.784 47.485 Q 4.602 44.317 5.313 41.798 A 178.823 178.823 0 0 1 5.542 40.991 A 106.909 106.909 0 0 1 5.919 39.705 Q 6.457 37.917 6.787 37.109 A 12.763 12.763 0 0 1 7.469 35.625 Q 8.275 34.147 9.302 33.423 A 6.866 6.866 0 0 1 11.852 32.329 A 8.644 8.644 0 0 1 12.842 32.178 Q 14.893 31.982 17.578 31.982 Q 17.09 33.643 16.162 36.67 A 440.932 440.932 0 0 0 15.198 39.862 A 588.537 588.537 0 0 0 14.16 43.384 A 357.657 357.657 0 0 0 12.109 50.708 Q 11.133 54.346 10.498 57.275 Q 9.995 59.597 9.891 60.998 A 9.098 9.098 0 0 0 9.863 61.67 A 4.154 4.154 0 0 0 9.888 62.101 Q 9.938 62.568 10.083 63.212 A 18.183 18.183 0 0 0 10.181 63.623 Q 10.498 64.893 11.572 64.893 Q 12.142 64.893 14.122 63.182 A 38.036 38.036 0 0 0 14.233 63.086 Q 15.66 61.844 17.352 60.244 A 158.427 158.427 0 0 0 18.945 58.716 A 211.473 211.473 0 0 0 22.736 54.939 A 186.535 186.535 0 0 0 23.177 54.486 A 301.679 301.679 0 0 1 24.463 49.268 A 205.472 205.472 0 0 1 25.537 45.233 A 162.053 162.053 0 0 1 26.611 41.528 A 127.439 127.439 0 0 1 27.133 39.848 Q 27.786 37.799 28.338 36.348 A 37.18 37.18 0 0 1 28.516 35.889 A 7.812 7.812 0 0 1 29.177 34.522 Q 30.058 33.105 31.396 32.642 A 11.424 11.424 0 0 1 33.459 32.147 Q 34.431 32.003 35.525 31.985 A 19.108 19.108 0 0 1 35.84 31.982 L 39.111 31.982 L 38.55 33.936 A 843.98 843.98 0 0 1 38.251 34.973 Q 37.775 36.621 37.134 38.818 A 473.776 473.776 0 0 1 35.376 44.702 A 2179.46 2179.46 0 0 1 34.736 46.791 Q 34.485 47.608 34.261 48.337 A 1064.866 1064.866 0 0 1 33.838 49.707 Q 35.096 47.359 37.093 44.578 A 71.27 71.27 0 0 1 37.769 43.652 A 52.053 52.053 0 0 1 43.359 37.305 A 34.462 34.462 0 0 1 47.795 33.65 A 29.807 29.807 0 0 1 49.902 32.324 A 15.825 15.825 0 0 1 53.033 30.939 A 12.058 12.058 0 0 1 56.641 30.371 A 5.696 5.696 0 0 1 58.678 30.706 Q 61.168 31.656 61.402 35.301 A 12.255 12.255 0 0 1 61.426 36.084 A 9.333 9.333 0 0 1 61.36 37.132 Q 61.234 38.236 60.868 39.734 A 36.494 36.494 0 0 1 60.742 40.234 A 79.9 79.9 0 0 1 59.973 42.987 A 104.861 104.861 0 0 1 59.033 45.972 A 380.918 380.918 0 0 1 56.958 52.075 A 167.899 167.899 0 0 0 56.222 54.224 Q 55.937 55.077 55.688 55.858 A 94.108 94.108 0 0 0 55.225 57.349 Q 54.579 59.493 54.543 60.396 A 2.573 2.573 0 0 0 54.541 60.498 A 1.95 1.95 0 0 0 54.563 60.808 Q 54.651 61.351 55.084 61.376 A 0.74 0.74 0 0 0 55.127 61.377 A 1.633 1.633 0 0 0 55.543 61.317 Q 55.955 61.207 56.495 60.899 A 8.224 8.224 0 0 0 56.836 60.693 Q 57.471 60.254 58.984 58.862 A 182.925 182.925 0 0 0 60.577 57.379 A 250.722 250.722 0 0 0 62.329 55.713 A 2104.785 2104.785 0 0 1 64.111 54.004 A 1770.685 1770.685 0 0 1 65.796 52.393 A 108.941 108.941 0 0 1 66.566 51.663 A 69.198 69.198 0 0 1 67.317 50.969 A 1597.043 1597.043 0 0 1 68.726 45.581 Q 70.313 39.551 71.851 33.716 A 2014.228 2014.228 0 0 1 73.328 28.143 A 1500.578 1500.578 0 0 1 74.683 23.096 Q 75.673 19.432 76.363 16.899 A 1539.677 1539.677 0 0 1 76.758 15.454 L 77.539 12.598 A 161.821 161.821 0 0 1 78.154 10.408 Q 78.837 8.042 79.416 6.361 A 42.605 42.605 0 0 1 79.761 5.396 A 18.51 18.51 0 0 1 80.341 3.998 Q 80.972 2.65 81.67 1.863 A 4.932 4.932 0 0 1 81.836 1.685 A 4.859 4.859 0 0 1 84.595 0.269 Q 86.23 0 88.818 0 A 31.158 31.158 0 0 1 90.063 0.024 A 4.566 4.566 0 0 1 90.419 0.052 Q 90.769 0.093 91 0.189 A 1.292 1.292 0 0 1 91.016 0.195 A 1835.593 1835.593 0 0 1 90.546 1.863 Q 89.845 4.346 88.905 7.655 A 5360.397 5360.397 0 0 1 88.77 8.13 A 1253.948 1253.948 0 0 1 86.623 15.591 A 1432.845 1432.845 0 0 1 85.864 18.189 A 3766.509 3766.509 0 0 1 84.369 23.279 A 3109.024 3109.024 0 0 1 82.959 28.052 A 6614.044 6614.044 0 0 0 82.307 30.252 Q 81.509 32.951 80.923 34.939 A 2082.656 2082.656 0 0 0 80.737 35.571 A 325.582 325.582 0 0 0 80.548 36.218 Q 79.899 38.441 79.93 38.476 A 0.002 0.002 0 0 0 79.932 38.477 Q 83.691 34.033 88.086 32.202 A 23.344 23.344 0 0 1 94.913 30.465 A 21.567 21.567 0 0 1 96.924 30.371 A 6.854 6.854 0 0 1 99.153 30.719 A 5.734 5.734 0 0 1 101.636 32.397 A 7.114 7.114 0 0 1 103.413 37.014 A 9.108 9.108 0 0 1 103.418 37.305 Q 103.418 41.504 101.514 43.848 Q 99.609 46.191 96.216 47.632 A 139.511 139.511 0 0 1 92.814 49.02 Q 91.019 49.727 89.007 50.47 A 232.934 232.934 0 0 1 88.428 50.684 A 17.314 17.314 0 0 1 90.286 50.776 Q 92.473 51.013 93.701 51.855 A 5.939 5.939 0 0 1 95.058 53.117 A 5.029 5.029 0 0 1 95.923 54.834 A 13.705 13.705 0 0 1 96.436 58.594 A 35.297 35.297 0 0 1 96.387 60.449 A 35.706 35.706 0 0 0 96.345 61.571 A 30.135 30.135 0 0 0 96.338 62.207 A 12.596 12.596 0 0 0 96.443 63.862 A 10.99 10.99 0 0 0 96.533 64.429 Q 96.652 65.068 96.879 65.318 A 0.445 0.445 0 0 0 97.217 65.479 A 0.631 0.631 0 0 0 97.454 65.427 Q 97.654 65.346 97.894 65.135 A 3.362 3.362 0 0 0 98.047 64.99 A 50.532 50.532 0 0 1 98.19 64.848 Q 98.534 64.507 99.524 63.531 A 3800.867 3800.867 0 0 1 100 63.062 A 2001.59 2001.59 0 0 0 101.381 61.699 Q 102.615 60.48 104.126 58.984 A 1350.226 1350.226 0 0 0 108.984 54.15 A 293.478 293.478 0 0 0 110.712 52.409 Q 112.067 51.032 113.135 49.902 L 113.135 55.371 Q 107.715 60.693 104.248 64.111 A 183.4 183.4 0 0 1 102.592 65.724 Q 100.226 67.999 98.56 69.409 Q 96.338 71.289 94.8 72.046 A 7.543 7.543 0 0 1 93.125 72.647 A 6.257 6.257 0 0 1 91.748 72.803 A 5.741 5.741 0 0 1 90.402 72.656 Q 89.485 72.435 88.871 71.879 A 3.31 3.31 0 0 1 88.062 70.728 A 10.537 10.537 0 0 1 87.337 68.208 A 14.538 14.538 0 0 1 87.158 65.869 A 37.648 37.648 0 0 1 87.459 61.184 A 41.206 41.206 0 0 1 87.5 60.864 A 49.275 49.275 0 0 0 87.695 59.203 Q 87.768 58.458 87.805 57.805 A 21.652 21.652 0 0 0 87.842 56.592 A 3.68 3.68 0 0 0 87.673 55.456 A 3.099 3.099 0 0 0 87.061 54.37 A 2.702 2.702 0 0 0 86.422 53.846 Q 85.555 53.314 83.96 52.979 Q 82.031 52.573 78.533 52.504 A 75.922 75.922 0 0 0 77.051 52.49 L 76.758 53.809 Q 76.709 54.15 76.172 56.421 Q 75.803 57.982 75.26 59.901 A 130.809 130.809 0 0 1 74.731 61.719 A 49.197 49.197 0 0 1 72.926 66.774 A 44.786 44.786 0 0 1 72.632 67.456 A 17.796 17.796 0 0 1 71.863 69.004 Q 71.441 69.752 70.996 70.334 A 6.993 6.993 0 0 1 70.02 71.387 L 62.451 71.387 Q 62.598 70.02 63.501 66.187 Q 64.122 63.551 64.962 60.189 A 762.105 762.105 0 0 1 65.41 58.408 A 528.411 528.411 0 0 1 64.99 58.814 A 220.637 220.637 0 0 1 62.72 60.974 A 288.995 288.995 0 0 1 60.205 63.306 A 130.008 130.008 0 0 1 55.119 67.737 A 119.531 119.531 0 0 1 54.956 67.871 A 63.617 63.617 0 0 1 52.754 69.606 Q 51.393 70.628 50.171 71.411 A 16.577 16.577 0 0 1 49.151 72.018 Q 47.706 72.803 46.826 72.803 A 7.521 7.521 0 0 1 45.738 72.73 Q 44.127 72.494 43.604 71.484 A 7.353 7.353 0 0 1 43.2 70.568 Q 43.025 70.076 42.959 69.622 A 3.695 3.695 0 0 1 42.92 69.092 A 29.614 29.614 0 0 1 43.886 61.682 A 33.069 33.069 0 0 1 44.019 61.182 A 71.736 71.736 0 0 1 46.582 53.516 Q 48.035 49.882 49.128 46.922 A 186.532 186.532 0 0 0 49.146 46.875 A 26.012 26.012 0 0 0 49.701 45.21 Q 50.182 43.572 50.237 42.389 A 6.426 6.426 0 0 0 50.244 42.09 A 4.435 4.435 0 0 0 50.181 41.317 Q 50.052 40.588 49.658 40.112 Q 49.072 39.404 48.34 39.404 A 5.064 5.064 0 0 0 46.086 39.962 Q 45.324 40.338 44.557 40.966 A 12.119 12.119 0 0 0 43.506 41.943 A 26.005 26.005 0 0 0 41.402 44.445 Q 40.404 45.787 39.436 47.389 A 46.042 46.042 0 0 0 38.794 48.486 Q 36.523 52.49 34.644 56.934 A 127.019 127.019 0 0 0 32.714 61.755 A 99.136 99.136 0 0 0 31.47 65.259 Q 30.176 69.141 29.639 71.387 L 20.313 71.387 A 27.502 27.502 0 0 1 20.393 69.849 Q 20.537 68.012 20.923 65.527 A 104.533 104.533 0 0 1 21.582 61.762 A 134.654 134.654 0 0 1 21.745 60.937 A 375.947 375.947 0 0 1 19.493 63.061 Q 17.36 65.055 15.547 66.673 A 152.613 152.613 0 0 1 13.965 68.066 A 27.253 27.253 0 0 1 10.874 70.409 Q 7.42 72.633 4.297 72.803 Z M 341.846 57.764 L 347.51 33.984 A 202.395 202.395 0 0 0 346.655 33.778 Q 345.824 33.58 345.201 33.44 A 55.663 55.663 0 0 0 344.678 33.325 A 10.003 10.003 0 0 0 343.434 33.136 A 8.334 8.334 0 0 0 342.725 33.105 A 10.656 10.656 0 0 0 336.469 35.14 A 12.985 12.985 0 0 0 336.377 35.205 A 19.592 19.592 0 0 0 332.456 38.974 A 23.694 23.694 0 0 0 331.226 40.674 Q 329.004 44.043 327.759 47.974 Q 326.514 51.904 326.514 55.566 A 28.827 28.827 0 0 0 326.614 58.063 Q 326.828 60.513 327.497 62.079 A 6.78 6.78 0 0 0 327.783 62.671 A 5.629 5.629 0 0 0 328.607 63.831 A 3.494 3.494 0 0 0 331.25 64.99 A 6.678 6.678 0 0 0 333.937 64.353 Q 337.348 62.845 341.846 57.764 Z M 153.906 54.59 L 158.203 35.693 Q 158.154 35.449 156.982 34.619 A 3.95 3.95 0 0 0 155.861 34.082 Q 154.918 33.789 153.613 33.789 A 9.766 9.766 0 0 0 148.857 35.053 A 12.892 12.892 0 0 0 147.339 36.035 A 20.924 20.924 0 0 0 143.681 39.572 A 26.112 26.112 0 0 0 141.992 41.895 Q 139.648 45.508 138.281 49.609 A 27.329 27.329 0 0 0 137.176 54.116 A 22.166 22.166 0 0 0 136.914 57.471 A 17.306 17.306 0 0 0 136.983 59.073 Q 137.189 61.279 138.013 62.305 A 3.499 3.499 0 0 0 140.558 63.658 A 4.507 4.507 0 0 0 140.918 63.672 A 6.675 6.675 0 0 0 142.493 63.471 Q 143.556 63.213 144.751 62.622 A 24.649 24.649 0 0 0 148.563 60.272 A 27.361 27.361 0 0 0 148.877 60.034 Q 150.879 58.496 152.295 56.982 A 14.814 14.814 0 0 0 152.909 56.286 Q 153.473 55.602 153.728 55.079 A 2.247 2.247 0 0 0 153.906 54.59 Z M 77.344 49.072 L 80.615 49.072 A 16.112 16.112 0 0 0 82.38 48.969 Q 83.577 48.837 84.937 48.535 Q 87.354 47.998 89.6 46.899 A 11.486 11.486 0 0 0 92.093 45.269 A 10.053 10.053 0 0 0 93.286 44.043 A 6.341 6.341 0 0 0 94.704 40.406 A 8.163 8.163 0 0 0 94.727 39.795 A 8.081 8.081 0 0 0 94.563 38.091 Q 93.938 35.205 90.918 35.205 A 3.605 3.605 0 0 0 90.013 35.334 Q 89.17 35.554 88.089 36.151 A 16.188 16.188 0 0 0 87.451 36.523 A 23.276 23.276 0 0 0 85.278 38.043 Q 84.184 38.9 83.065 39.958 A 35.542 35.542 0 0 0 83.057 39.966 A 26.736 26.736 0 0 0 79.612 43.907 A 24.616 24.616 0 0 0 79.199 44.507 A 14.129 14.129 0 0 0 78.183 46.282 Q 77.711 47.277 77.491 48.223 A 7.494 7.494 0 0 0 77.344 49.072 Z M 338.916 77.1 L 330.908 83.887 Q 329.199 85.303 327.368 86.939 A 5.012 5.012 0 0 0 325.995 89.044 Q 325.702 89.869 325.596 90.887 A 11.69 11.69 0 0 0 325.537 92.09 A 6.585 6.585 0 0 0 325.594 92.987 Q 325.732 93.993 326.213 94.519 A 1.686 1.686 0 0 0 326.44 94.727 Q 327.344 95.41 329.15 95.41 A 5.606 5.606 0 0 0 333.09 93.802 A 8.214 8.214 0 0 0 333.862 92.969 A 14.555 14.555 0 0 0 335.44 90.53 Q 336.086 89.291 336.621 87.793 A 28.841 28.841 0 0 0 337.085 86.377 A 47.684 47.684 0 0 0 338.277 81.399 A 62.025 62.025 0 0 0 338.916 77.1 Z M 193.213 75.684 L 184.18 81.397 A 26.509 26.509 0 0 0 181.007 83.661 A 29.486 29.486 0 0 0 180.566 84.033 Q 178.809 85.547 178.809 87.891 A 6.464 6.464 0 0 0 178.969 89.402 Q 179.571 91.895 182.422 91.895 A 7.427 7.427 0 0 0 188.387 89.019 A 12.001 12.001 0 0 0 189.624 87.183 A 27.905 27.905 0 0 0 191.827 81.952 Q 192.612 79.437 193.084 76.524 A 47.908 47.908 0 0 0 193.213 75.684 Z M 236.182 48.584 A 5.452 5.452 0 0 0 239.965 47.057 A 8.595 8.595 0 0 0 241.113 45.752 A 10.417 10.417 0 0 0 243.164 39.502 A 9.891 9.891 0 0 0 243.088 38.223 Q 242.906 36.833 242.29 36.086 A 2.353 2.353 0 0 0 241.943 35.742 A 4.135 4.135 0 0 0 240.504 35.014 Q 239.657 34.766 238.574 34.766 Q 235.693 34.766 233.496 36.426 A 15.658 15.658 0 0 0 230.703 39.114 A 14.069 14.069 0 0 0 229.907 40.21 Q 228.579 42.237 228.029 43.664 A 8.805 8.805 0 0 0 227.979 43.799 A 14.401 14.401 0 0 0 230.171 46.122 A 12.178 12.178 0 0 0 231.86 47.314 A 9.849 9.849 0 0 0 233.892 48.226 A 7.652 7.652 0 0 0 236.182 48.584 Z M 16.371 20.319 A 5.767 5.767 0 0 0 17.432 20.41 A 7.541 7.541 0 0 0 21.582 19.189 Q 23.486 17.969 24.658 16.162 A 9.797 9.797 0 0 0 24.857 15.843 Q 25.267 15.154 25.504 14.487 A 5.327 5.327 0 0 0 25.83 12.695 Q 25.83 11.182 24.561 10.034 A 3.126 3.126 0 0 0 24.363 9.87 Q 23.077 8.887 20.41 8.887 A 5.466 5.466 0 0 0 16.87 10.132 Q 15.332 11.377 14.478 13.159 A 9.499 9.499 0 0 0 13.94 14.533 A 7.174 7.174 0 0 0 13.623 16.602 Q 13.623 18.115 14.502 19.263 Q 15.134 20.087 16.371 20.319 Z M 266.761 20.319 A 5.767 5.767 0 0 0 267.822 20.41 A 7.541 7.541 0 0 0 271.973 19.189 Q 273.877 17.969 275.049 16.162 A 9.797 9.797 0 0 0 275.247 15.843 Q 275.657 15.154 275.895 14.487 A 5.327 5.327 0 0 0 276.221 12.695 Q 276.221 11.182 274.951 10.034 A 3.126 3.126 0 0 0 274.754 9.87 Q 273.468 8.887 270.801 8.887 A 5.466 5.466 0 0 0 267.261 10.132 Q 265.723 11.377 264.868 13.159 A 9.499 9.499 0 0 0 264.331 14.533 A 7.174 7.174 0 0 0 264.014 16.602 Q 264.014 18.115 264.893 19.263 Q 265.524 20.087 266.761 20.319 Z" vector-effect="non-scaling-stroke"/></g></svg>